<svg id="Layer_1" data-name="Layer 1" xmlns="http://www.w3.org/2000/svg" viewBox="0 0 640.4 84.9" width="100%"><defs><style>.c{fill:url(#b);}.d{fill:#f73525;}.e{fill:#fff;}.f{fill:#ffb583;}.g{fill:#e5e6ea;}.h{fill:#606060;}</style><linearGradient id="b" x1="0" y1="42.45" x2="640.4" y2="42.45" gradientTransform="matrix(1, 0, 0, 1, 0, 0)" gradientUnits="userSpaceOnUse"><stop offset="0" stop-color="#7928ca"></stop><stop offset="1" stop-color="#ff0080"></stop></linearGradient></defs><g><path class="d" d="M326.6,84.9V0h95.6V84.9h-95.6Z"></path><path class="c" d="M218.2,84.9V0h95.7V33.4l-21.5-.3,21.5,18.4v33.4h-95.7Zm55.3-62.4h-15v10.9h15v-10.9Zm0,28.8h-15v10h15v-10Zm255.8-17.9h-53.3v-10.9h55.3l-.1-22.5h-95.6V50.4h55.4v10.9h-55.4v23.6h95.6v-23.6h0l.1-27.9h-2Zm109.1,0h-53.3v-10.9h55.3l-.1-22.5h-95.6V50.4h55.4v10.9h-55.4v23.6h95.6v-23.6h0l.1-27.9h-2ZM180,0l-15.6,17.7-7.5,8.5-7.5-8.5L133.8,0h-24.7V84.9h40.3V45l7.5,8.5,7.5-8.5v39.9h40.4V0h-24.8ZM55.3,84.9v-23.6h-15v23.6H0V0H95.7V84.9H55.3Zm0-56.8h-15v17.1h15V28.1Z"></path></g><rect class="g" x="326.6" y="59.73" width="95.6" height="25.17"></rect><rect class="g" x="326.6" y="20.96" width="11.88" height="38.77"></rect><rect class="g" x="410.32" y="20.96" width="11.88" height="38.77"></rect><rect class="e" x="326.6" y="15.11" width="95.6" height="12.84"></rect><rect class="f" x="338.48" y="27.95" width="71.83" height="31.78"></rect><rect class="g" x="354.02" y="54.59" width="40.75" height="10.27"></rect><rect x="350" y="29.72" width="20.01" height="15.74"></rect><rect class="h" x="364.06" y="67.04" width="20.69" height="2.29"></rect><rect x="338.48" y="32.59" width="71.83" height="2.32"></rect><rect x="378.78" y="29.72" width="20.01" height="15.74"></rect></svg>
